<?xml version="1.0" encoding="UTF-8"?>
<!DOCTYPE svg PUBLIC "-//W3C//DTD SVG 1.1//EN" "http://www.w3.org/Graphics/SVG/1.1/DTD/svg11.dtd">
<!-- Creator: CorelDRAW X8 -->
<svg xmlns="http://www.w3.org/2000/svg" xml:space="preserve" width="251.46mm" height="114.3mm" version="1.1" style="shape-rendering:geometricPrecision; text-rendering:geometricPrecision; image-rendering:optimizeQuality; fill-rule:evenodd; clip-rule:evenodd"
viewBox="0 0 25146 11430"
 xmlns:xlink="http://www.w3.org/1999/xlink">
 <defs>
  <style type="text/css">
   <![CDATA[
    .str1 {stroke:#741B75;stroke-width:160}
    .str2 {stroke:#741B75;stroke-width:150}
    .str3 {stroke:#FEFEFE;stroke-width:20}
    .str0 {stroke:#741B75;stroke-width:7.62}
    .fil3 {fill:none}
    .fil4 {fill:#FEFEFE}
    .fil2 {fill:#FEFEFE}
    .fil1 {fill:#741B75}
    .fil0 {fill:#741B75;fill-rule:nonzero}
   ]]>
  </style>
 </defs>
 <g id="Слой_x0020_1">
  <metadata id="CorelCorpID_0Corel-Layer"/>
  <g id="_3042368738736">
   <path class="fil0 str0" d="M9235 5863c48,0 85,-37 85,-85l0 -80c0,-499 -303,-768 -807,-768 -502,0 -808,278 -808,788 0,513 303,785 808,785 453,0 756,-102 756,-397 0,-48 -37,-85 -85,-85l-207 0c-70,0 -121,29 -158,74 -48,59 -153,93 -272,93 -233,0 -335,-99 -355,-325l1043 0zm-722 -618c209,0 311,113 320,326l-643 0c11,-213 119,-326 323,-326zm2077 1145c0,48 37,85 85,85l309 0c48,0 85,-37 85,-85l0 -794c0,-39 -3,-79 -9,-119 100,-136 210,-212 304,-212 153,0 240,96 240,331l0 794c0,48 37,85 85,85l309 0c49,0 85,-37 85,-85l0 -794c0,-470 -241,-666 -586,-666 -196,0 -369,102 -527,267 -108,-176 -261,-267 -488,-267 -198,0 -317,94 -428,201l0 -87c0,-49 -37,-85 -85,-85l-309 0c-48,0 -85,36 -85,85l0 1346c0,48 37,85 85,85l309 0c48,0 85,-37 85,-85l0 -927c88,-122 176,-198 295,-198 153,0 241,96 241,331l0 794zm2641 -1125c227,0 320,138 320,450 0,315 -93,454 -348,454 -71,0 -184,-20 -301,-57l0 -723c100,-62 227,-124 329,-124zm113 -335c-201,0 -357,65 -484,156l0 -42c0,-49 -37,-85 -85,-85l-267 0c-48,0 -85,36 -85,85l0 1813c0,48 37,85 85,85l309 0c49,0 85,-37 85,-85l0 -425c117,37 230,71 400,71 442,0 742,-266 742,-788 0,-518 -297,-785 -700,-785zm1349 1545c49,0 85,-37 85,-86l0 -1815c0,-49 -36,-86 -85,-86l-308 0c-49,0 -86,37 -86,86l0 1815c0,49 37,86 86,86l308 0zm1176 -287c-240,0 -357,-138 -357,-473 0,-334 117,-470 357,-470 241,0 358,136 358,470 0,335 -117,473 -358,473zm0 -1258c-535,0 -836,264 -836,785 0,522 301,788 836,788 536,0 836,-266 836,-788 0,-521 -300,-785 -836,-785zm1511 1712c-65,0 -119,-23 -181,-23l-51 0c-49,0 -85,37 -85,85l0 153c0,43 36,77 85,85 90,17 246,29 359,29 326,0 496,-187 624,-638l363 -1292c11,-43 -20,-82 -66,-82l-291 0c-51,0 -102,39 -117,93l-274 969c-122,0 -210,-85 -304,-382l-181 -587c-17,-54 -74,-93 -125,-93l-289 0c-45,0 -79,39 -65,82l207 669c159,510 371,646 663,646 -51,190 -139,286 -272,286zm2015 -473c-227,0 -320,-139 -320,-451 0,-315 93,-453 348,-453 71,0 184,19 301,56l0 723c-100,62 -227,125 -329,125zm-114 334c202,0 358,-65 485,-156l0 43c0,48 37,85 85,85l266 0c49,0 85,-37 85,-85l0 -1816c0,-49 -36,-86 -85,-86l-308 0c-49,0 -85,37 -85,86l0 427c-117,-37 -230,-71 -400,-71 -442,0 -742,267 -742,788 0,519 297,785 699,785zm2707 -640c48,0 85,-37 85,-85l0 -80c0,-499 -303,-768 -808,-768 -501,0 -807,278 -807,788 0,513 303,785 807,785 454,0 757,-102 757,-397 0,-48 -37,-85 -85,-85l-207 0c-71,0 -122,29 -159,74 -48,59 -153,93 -272,93 -232,0 -334,-99 -354,-325l1043 0zm-723 -618c210,0 312,113 320,326l-643 0c11,-213 119,-326 323,-326zm2242 -230c0,-48 -37,-85 -85,-85 -312,0 -456,85 -615,201l0 -87c0,-49 -37,-85 -85,-85l-309 0c-48,0 -85,36 -85,85l0 1346c0,48 37,85 85,85l309 0c48,0 85,-37 85,-85l0 -884c102,-122 215,-205 357,-205 74,0 147,9 212,9l46 0c48,0 85,-37 85,-85l0 -210z"/>
   <rect class="fil1 str1" x="6341" y="3998" width="203" height="3421"/>
   <g id="__x002b_">
    <path class="fil2" d="M2076 4942l2600 0 8 0 39 0 0 0 137 108 0 0 7 114 0 0 -76 102 0 0 -2614 25 -60 1 -81 1 0 0 -86 -48 -35 -48c-12,-24 -18,-50 -18,-77 0,-7 0,-13 1,-19l16 -56 0 -1 35 -50 0 0 127 -52zm-40 351l0 0 0 0 0 0zm-121 -96l-32 -44 15 -52c-1,6 -1,12 -1,19 0,27 6,53 18,77zm-1 -152l0 0 0 -1 0 1zm35 -51l0 0 0 0 0 0zm2774 -52l0 0 0 0 0 0zm137 108l0 0 0 0 0 0zm7 114l0 0 0 0 0 0zm-76 102l0 0 0 0 0 0z"/>
    <path class="fil3 str1" d="M4684 4940c3,0 6,0 9,0 99,0 180,79 180,177 0,98 -80,178 -180,178 0,0 0,0 0,0l-2616 2m9 0c-3,0 -6,0 -9,0 -100,0 -180,-79 -180,-177 0,-98 80,-178 179,-178 0,0 0,0 0,0l2617 -2"/>
   </g>
   <g>
    <path class="fil2" d="M3378 7163l617 -2849 2 -10 9 -42 1 0 127 -121 0 0 102 23 0 0 72 110 0 0 -598 2873 -14 66 -19 89 0 0 -62 82 -51 25c-23,6 -48,6 -72,-1 -5,-2 -11,-4 -16,-6l-46 -33 0 0 -36 -52 0 0 -16 -154zm299 139l0 0 0 0 0 0zm-113 107l-46 23 -42 -30c5,2 11,4 16,6 24,7 49,7 72,1zm-134 -40l0 0 0 0 0 0zm-36 -52l0 0 0 0 0 0zm612 -3055l0 0 1 0 -1 0zm128 -121l0 0 0 0 0 0zm102 23l0 0 0 0 0 0zm72 110l0 0 0 0 0 0z"/>
    <path class="fil3 str2" d="M3995 4304c1,-3 2,-7 2,-10 24,-109 113,-176 199,-150 87,26 138,136 114,245 0,0 0,0 0,0l-619 2869m2 -10c0,3 -1,7 -2,10 -23,109 -112,176 -199,150 -86,-26 -137,-136 -114,-245 0,0 0,0 0,0l619 -2869"/>
   </g>
   <g>
    <path class="fil2" d="M1832 6171l2600 0 8 0 39 0 0 0 137 106 0 0 7 112 0 0 -76 101 0 0 -2614 24 -60 1 -81 0 0 0 -86 -46 -35 -48c-12,-23 -18,-48 -18,-75 0,-6 0,-13 1,-19l16 -55 0 0 35 -50 0 0 127 -51zm-40 344l0 0 0 0 0 0zm-121 -94l-32 -42 15 -52c-1,6 -1,13 -1,19 0,27 6,52 18,75zm-1 -149l0 0 0 0 0 0zm35 -50l0 0 0 0 0 0zm2774 -51l0 0 0 0 0 0zm137 106l0 0 0 0 0 0zm7 112l0 0 0 0 0 0zm-76 101l0 0 0 0 0 0z"/>
    <path class="fil3 str1" d="M4440 6169c3,0 6,0 9,0 99,0 180,78 180,174 0,96 -80,175 -180,175 0,0 0,0 0,0l-2616 2m9 0c-3,0 -6,0 -9,0 -100,0 -180,-78 -180,-174 0,-97 80,-175 179,-175 0,0 0,0 0,0l2617 -2"/>
   </g>
   <g>
    <path class="fil2" d="M2218 7106l617 -2850 2 -10 9 -42 0 0 128 -121 0 0 102 23 0 0 72 110 0 1 -599 2872 -13 66 -19 89 0 0 -62 82 -51 25c-23,6 -48,6 -72,-1 -6,-2 -11,-4 -16,-6l-46 -33 -1 0 -35 -52 0 0 -16 -153zm299 138l0 0 0 0 0 0zm-113 107l-46 23 -42 -30c5,2 10,4 16,6 24,7 49,7 72,1zm-134 -40l0 0 -1 0 1 0zm-36 -52l0 0 0 0 0 0zm612 -3055l0 0 0 0 0 0zm128 -121l0 0 0 0 0 0zm102 23l0 0 0 0 0 0zm72 110l0 1 0 0 0 -1z"/>
    <path class="fil3 str1" d="M2835 4246c1,-3 1,-6 2,-10 23,-109 112,-176 199,-150 86,27 137,136 114,245 0,0 0,0 0,0l-619 2869m2 -10c-1,4 -1,7 -2,10 -24,109 -113,176 -199,150 -87,-26 -138,-136 -114,-244 0,0 0,0 0,0l619 -2870"/>
   </g>
   <g>
    <path class="fil2" d="M2920 5310l-371 1779 -13 66 -19 89 0 0 -62 82 -51 25c-23,6 -48,6 -72,-1 -6,-2 -11,-4 -16,-6l-46 -33 -1 0 -35 -52 0 0 -16 -153 392 -1812 310 16zm-85 -1054l2 -10 9 -42 0 0 -11 52zm313 -40l0 1 0 -1zm-631 3028l0 0 0 0 0 0zm-113 107l-46 23 -42 -30c5,2 10,4 16,6 24,7 49,7 72,1zm-134 -40l0 0 -1 0 1 0zm-36 -52l0 0 0 0 0 0zm612 -3055l0 0 0 0 0 0zm128 -121l0 0 0 0zm102 23l0 0 0 0 0 0zm72 110l0 1 0 0 0 -1z"/>
   </g>
   <path class="fil3 str1" d="M2835 4246c1,-3 1,-6 2,-10m313 95c0,0 0,0 0,0m-206 952l-413 1917m2 -10c-1,4 -1,7 -2,10 -24,109 -113,176 -199,150 -87,-26 -138,-136 -114,-244 0,0 0,0 0,0l400 -1846"/>
   <g>
    <path class="fil2" d="M2177 5291l-60 1 -81 1 0 0 -86 -48 -35 -48c-12,-24 -18,-50 -18,-77 0,-7 0,-13 1,-19l16 -56 0 -1 35 -50 0 0 228 297zm-141 2l0 0 0 0 0 0zm-121 -96l-32 -44 15 -52c-1,6 -1,12 -1,19 0,27 6,53 18,77zm-1 -152l0 0 0 -1 0 1zm35 -51l0 0 0 0 0 0z"/>
   </g>
   <rect class="fil4 str3" transform="matrix(0.792524 0.0361344 -0.0361344 0.792524 2420.8 4944.52)" width="1102" height="377"/>
   <path class="fil3 str1" d="M3343 5296l-1266 1m9 0c-3,0 -6,0 -9,0 -100,0 -180,-79 -180,-177 0,-98 80,-178 179,-178 0,0 0,0 0,0l1267 -1"/>
  </g>
 </g>
</svg>
